<svg fill="#000000" height="50" width="50" xmlns="http://www.w3.org/2000/svg" viewBox="0 0 512 512"><path d="M354.607,435.583a.974.974,0,0,1,.315.943c-1.6,7.676-3.837,17.54-5.652,22.644-6.19,17.43-22,38.3-27.03,43.57a4,4,0,0,1-2.91,1.26h-19.8a2.005,2.005,0,0,1-1.45-.62c-4.83-5.12,5.82-11.77,5.82-11.77s12.23-30.81,8.88-43.36c-1.63-6.137-8.967-15.611-14.8-22.95a1,1,0,0,1,.7-1.615c16.483-1.481,29.82-3.066,37.582-4.462a.984.984,0,0,1,.879.281C341.231,423.622,352.076,433.359,354.607,435.583Z"/><path d="M125.212,454.717a1.009,1.009,0,0,1,.087,1.2c-16.857,26.6-34.956,43.057-39.629,47.1a4.015,4.015,0,0,1-2.62.98H63.83a2,2,0,0,1-2-1.84c-.19-2.93.6-8.56,8.92-10.91a134.23,134.23,0,0,0,11.74-36.27l7.217-44.625a1,1,0,0,1,1.808-.411c4.987,7.255,21.85,31.228,29.475,39.916C121.777,450.764,124.105,453.44,125.212,454.717Z"/><path d="M506.83,126.28c0,12.53-22.64,18.73-28.57,31.28-8.59,18.16.73,43.77-2.82,69.85-6.15,45.19-42.05,73.66-58.06,81.67a1.929,1.929,0,0,0-1.02,2.23c4.94,18.84-.59,59.21-3.46,71.31-5.37,22.7,5.05,45.58,6.13,58.84.68,8.265-20.393,53.291-28,61.344a3.914,3.914,0,0,1-2.855,1.2h-20a2.02,2.02,0,0,1-1.456-.626c-5.419-5.691,4.606-11.764,4.606-11.764l8.53-44.41a1.685,1.685,0,0,0-.34-1.54c-9.383-8.894-33.43-29.7-38.5-35.12a2.989,2.989,0,0,0-2.88-.88c-6.79,1.64-25.21,3.83-47.59,5.69-37.14,3.12-85.21,5.38-109.15,2.88a3,3,0,0,0-3.22,3.78c5.81,21.35,9.73,48.8,6.97,63.57C183.11,496.47,174.89,504,174.17,504H154.14a1.993,1.993,0,0,1-1.989-1.753c-.576-5.274,4.849-8.207,4.849-8.207-5.77-21.87-15.17-33.95-26.42-46.88-9.43-10.83-20.14-22.37-31.1-41.05-2.51-4.27-4.81-8.74-6.93-13.31a306.069,306.069,0,0,1-12.12-31.27,39.622,39.622,0,0,0-4.293-8.916.984.984,0,0,1,.214-1.322c21.765-16.952,44.721-45.934,55.114-74.554a.98.98,0,0,1,1.207-.609c60.906,18,195.961-14.99,261.648,1.011,22.33,4.66,53.58-29.64,54.58-68.52.75-29.12-6.36-56.05,5.69-75.14C474.87,101.38,506.83,102.85,506.83,126.28Z"/><circle cx="9.687" cy="298.169" r="5.845"/><path d="M55.843,347.783a14.048,14.048,0,0,0-9.02,24.82q.175.15.357.292a.926.926,0,0,0,1.4-.315c.411-.819.818-1.7,1.05-2.219a.951.951,0,0,0-.053-.848,4.727,4.727,0,1,1,5.178,2.36.949.949,0,0,0-.69.534c-.2.47-.532,1.2-.933,2.013a.926.926,0,0,0,.7,1.325c.482.068,1.831.148,2.011.148a14.055,14.055,0,0,0,0-28.11Z"/><path d="M67.69,220.12c-4.38-2.83-10.17.9-10.17,6.12l-3.8,16.88S26.56,260.3,25.39,283.99c-.35,7.04-13.26,9.72-13.23,20.9.55,12.09,12.3,26.24,36.64,29.96a39.671,39.671,0,0,1,12.1,3.927.98.98,0,0,0,1.141-.16c7.7-7.47,41.736-40.83,53.327-69.814a1,1,0,0,0-.3-1.134C103.551,258.018,99.339,240.57,67.69,220.12ZM38.173,288.2a4.8,4.8,0,1,1,4.8-4.8A4.8,4.8,0,0,1,38.173,288.2Z"/></svg>