<svg xmlns="http://www.w3.org/2000/svg" xmlns:xlink="http://www.w3.org/1999/xlink" width="500" zoomAndPan="magnify" viewBox="0 0 375 225" height="300" preserveAspectRatio="xMidYMid meet" version="1.0"><path fill="#000000" d="M 29.679688 84.257812 C 34.625 71.1875 42.707031 60.582031 53.054688 53.582031 C 58.890625 49.535156 65.109375 46.210938 71.714844 43.601562 C 76.898438 41.621094 99.675781 36.144531 113.070312 35.742188 C 113.832031 35.71875 114.371094 35.703125 115.042969 35.703125 C 131.847656 35.761719 166.394531 42.769531 169.515625 43.261719 C 181.703125 45.1875 191.6875 44.035156 203.246094 42.703125 C 217.644531 41.042969 233.964844 39.164062 259.015625 42.605469 C 283.671875 45.996094 302.078125 60.925781 313.179688 72.851562 C 323.375 83.804688 331.074219 96.1875 335.28125 105.558594 L 335.292969 105.589844 C 336.179688 107.535156 336.957031 109.519531 337.632812 111.546875 C 337.652344 111.605469 337.675781 111.671875 337.699219 111.730469 C 338.109375 111.574219 338.53125 111.464844 338.964844 111.402344 C 339.398438 111.339844 339.832031 111.324219 340.269531 111.363281 C 340.707031 111.398438 341.136719 111.480469 341.554688 111.613281 C 341.972656 111.746094 342.371094 111.921875 342.75 112.144531 C 343.128906 112.367188 343.476562 112.625 343.796875 112.925781 C 344.117188 113.226562 344.398438 113.558594 344.640625 113.925781 C 344.886719 114.289062 345.085938 114.675781 345.246094 115.085938 C 345.402344 115.492188 345.511719 115.914062 345.574219 116.351562 C 345.636719 116.785156 345.652344 117.21875 345.613281 117.65625 C 345.578125 118.09375 345.496094 118.523438 345.363281 118.941406 C 345.230469 119.359375 345.054688 119.757812 344.832031 120.132812 C 344.609375 120.511719 344.347656 120.863281 344.046875 121.179688 C 343.746094 121.5 343.414062 121.78125 343.050781 122.027344 C 342.6875 122.273438 342.300781 122.472656 341.890625 122.628906 C 341.480469 122.789062 341.058594 122.898438 340.625 122.960938 C 340.191406 123.023438 339.753906 123.035156 339.320312 123 C 338.46875 126.976562 335.566406 131.335938 328.269531 135.5625 C 324.203125 137.859375 320.027344 139.945312 315.742188 141.820312 C 308.605469 145.070312 302.964844 147.632812 298.09375 153.316406 C 290.671875 161.972656 270.167969 175.777344 245.164062 178.210938 C 245.753906 179.554688 246.1875 180.949219 246.472656 182.390625 C 249 183.410156 251.878906 185.59375 252.441406 189.53125 C 252.523438 190.117188 252.480469 190.695312 252.308594 191.261719 C 252.140625 191.832031 251.863281 192.339844 251.472656 192.785156 C 251.078125 193.238281 250.609375 193.589844 250.0625 193.839844 C 249.515625 194.089844 248.941406 194.214844 248.339844 194.214844 L 237.617188 194.214844 C 237.003906 194.214844 236.40625 194.113281 235.828125 193.90625 C 224.382812 189.859375 217.035156 186.605469 213.886719 184.199219 C 188.773438 187.035156 163.144531 189.886719 140.640625 189.886719 C 133.128906 189.929688 125.640625 189.527344 118.171875 188.6875 C 118.199219 188.777344 118.230469 188.867188 118.257812 188.953125 C 118.4375 189.574219 118.464844 190.203125 118.347656 190.839844 C 118.230469 191.476562 117.972656 192.050781 117.582031 192.566406 C 117.191406 193.082031 116.703125 193.488281 116.121094 193.777344 C 115.542969 194.066406 114.925781 194.210938 114.277344 194.214844 L 103.917969 194.214844 C 103.0625 194.214844 102.253906 194.023438 101.488281 193.636719 C 94.011719 189.847656 83.945312 185.039062 80.175781 183.964844 C 50.148438 175.398438 30.257812 153.765625 25.605469 124.613281 C 24.515625 117.824219 24.316406 111.007812 25.007812 104.167969 C 25.699219 97.328125 27.253906 90.691406 29.679688 84.257812 Z M 258.230469 48.328125 C 233.902344 44.980469 217.96875 46.820312 203.90625 48.441406 C 192.425781 49.761719 181.585938 51.011719 168.621094 48.96875 C 165.371094 48.453125 130.808594 41.460938 114.117188 41.511719 C 112.578125 41.773438 110.78125 42.914062 109.171875 44.671875 C 107.65625 46.320312 107.039062 47.949219 107.230469 49.792969 C 108.019531 57.425781 121.859375 67.355469 134.070312 76.121094 C 143.039062 82.558594 151.507812 88.636719 156.191406 94.4375 C 175.761719 118.671875 203.164062 132.042969 233.355469 132.082031 L 233.496094 132.082031 C 254.171875 132.082031 271.851562 125.917969 292.578125 111.488281 C 304.285156 103.335938 319.867188 102.96875 327.890625 103.4375 C 317.546875 83.308594 293.035156 53.113281 258.230469 48.328125 Z M 31.304688 123.695312 C 32.390625 130.644531 34.503906 137.269531 37.648438 143.5625 C 44.996094 127.152344 55.082031 115.644531 64.089844 105.375 C 73.671875 94.449219 81.238281 85.820312 82.382812 74.921875 C 83.539062 63.960938 79.476562 53.304688 72.84375 49.40625 C 67.027344 51.84375 61.511719 54.832031 56.289062 58.367188 C 37.46875 71.09375 27.199219 97.957031 31.304688 123.695312 Z M 31.304688 123.695312 " fill-opacity="1" fill-rule="nonzero"/><path fill="#000000" d="M 297.699219 91.5625 C 297.40625 91.5625 297.113281 91.53125 296.824219 91.476562 C 296.535156 91.417969 296.257812 91.332031 295.984375 91.21875 C 295.714844 91.109375 295.457031 90.96875 295.210938 90.804688 C 294.964844 90.644531 294.738281 90.457031 294.53125 90.25 C 294.324219 90.042969 294.136719 89.816406 293.976562 89.570312 C 293.8125 89.328125 293.671875 89.070312 293.5625 88.796875 C 293.449219 88.523438 293.363281 88.246094 293.304688 87.957031 C 293.25 87.667969 293.21875 87.378906 293.21875 87.082031 C 293.21875 86.789062 293.25 86.496094 293.304688 86.210938 C 293.363281 85.921875 293.449219 85.640625 293.5625 85.367188 C 293.671875 85.097656 293.8125 84.839844 293.976562 84.59375 C 294.136719 84.351562 294.324219 84.125 294.53125 83.917969 C 294.738281 83.707031 294.964844 83.523438 295.210938 83.359375 C 295.453125 83.195312 295.714844 83.058594 295.984375 82.945312 C 296.257812 82.832031 296.535156 82.746094 296.824219 82.691406 C 297.113281 82.632812 297.40625 82.605469 297.699219 82.605469 C 297.992188 82.605469 298.285156 82.632812 298.574219 82.691406 C 298.859375 82.746094 299.140625 82.832031 299.414062 82.945312 C 299.683594 83.058594 299.941406 83.195312 300.1875 83.359375 C 300.429688 83.523438 300.65625 83.707031 300.867188 83.917969 C 301.074219 84.125 301.257812 84.351562 301.421875 84.59375 C 301.585938 84.839844 301.722656 85.097656 301.835938 85.371094 C 301.949219 85.640625 302.035156 85.921875 302.089844 86.210938 C 302.148438 86.5 302.175781 86.789062 302.175781 87.082031 C 302.175781 87.378906 302.148438 87.667969 302.089844 87.957031 C 302.035156 88.246094 301.949219 88.523438 301.835938 88.796875 C 301.722656 89.070312 301.585938 89.328125 301.421875 89.570312 C 301.257812 89.816406 301.074219 90.042969 300.863281 90.25 C 300.65625 90.457031 300.429688 90.644531 300.1875 90.804688 C 299.941406 90.96875 299.683594 91.109375 299.414062 91.21875 C 299.140625 91.332031 298.859375 91.417969 298.574219 91.476562 C 298.285156 91.53125 297.992188 91.5625 297.699219 91.5625 Z M 297.699219 91.5625 " fill-opacity="1" fill-rule="nonzero"/><path fill="#000000" d="M 279.78125 111.402344 C 274.820312 113.515625 268.847656 114.492188 262.722656 114.492188 C 249.40625 114.492188 235.355469 109.875 229.351562 102.238281 C 225.207031 96.96875 225.277344 90.910156 229.542969 85.1875 C 231.367188 82.742188 232.992188 80.429688 234.5625 78.195312 C 244.042969 64.707031 250.886719 54.960938 272.117188 63.855469 C 272.472656 64 272.789062 64.207031 273.066406 64.480469 C 273.339844 64.75 273.550781 65.066406 273.699219 65.421875 C 273.847656 65.777344 273.921875 66.148438 273.921875 66.535156 C 273.921875 66.921875 273.847656 67.292969 273.699219 67.648438 C 273.546875 68.003906 273.335938 68.316406 273.0625 68.589844 C 272.785156 68.859375 272.46875 69.066406 272.109375 69.210938 C 271.753906 69.355469 271.378906 69.425781 270.996094 69.417969 C 270.609375 69.414062 270.238281 69.335938 269.882812 69.179688 C 252.941406 62.082031 248.664062 68.171875 239.289062 81.511719 C 237.695312 83.78125 236.046875 86.125 234.171875 88.640625 C 231.460938 92.277344 231.371094 95.464844 233.890625 98.667969 C 240.433594 106.992188 263.199219 112.183594 277.519531 106.089844 C 277.871094 105.941406 278.238281 105.863281 278.621094 105.859375 C 279.003906 105.855469 279.371094 105.925781 279.726562 106.070312 C 280.082031 106.210938 280.398438 106.417969 280.671875 106.6875 C 280.945312 106.953125 281.15625 107.265625 281.304688 107.617188 C 281.457031 107.96875 281.53125 108.335938 281.535156 108.71875 C 281.539062 109.101562 281.46875 109.472656 281.328125 109.828125 C 281.183594 110.179688 280.976562 110.496094 280.710938 110.769531 C 280.441406 111.042969 280.132812 111.253906 279.78125 111.402344 Z M 279.78125 111.402344 " fill-opacity="1" fill-rule="nonzero"/></svg>